<?xml version="1.0" encoding="UTF-8"?>
<svg id="Layer_2" data-name="Layer 2" xmlns="http://www.w3.org/2000/svg" viewBox="0 0 720 149.6">
  <defs>
    <style>
      .cls-1 {
        fill: #fff;
      }

      .cls-1, .cls-2 {
        stroke-width: 0px;
      }

      .cls-2 {
        fill: #00d423;
      }
    </style>
  </defs>
  <g id="logo_design" data-name="logo design">
    <g id="logo_design-2" data-name="logo design">
      <g id="logomark">
        <path class="cls-1" d="M139.57,37.41c-3.28-5.67-7.3-10.87-11.9-15.48-4.61-4.6-9.81-8.61-15.48-11.9-5.59-3.24-11.64-5.78-18.03-7.49-6.18-1.66-12.67-2.55-19.37-2.55s-13.18.88-19.36,2.54c-6.39,1.71-12.44,4.25-18.04,7.49-5.67,3.28-10.87,7.3-15.47,11.9s-8.61,9.81-11.9,15.49c-3.25,5.59-5.78,11.64-7.49,18.02-1.65,6.18-2.54,12.67-2.54,19.37s.88,13.18,2.54,19.36c1.71,6.38,4.25,12.44,7.49,18.03,3.28,5.67,7.29,10.87,11.9,15.48,4.61,4.61,9.81,8.61,15.48,11.9,5.59,3.25,11.64,5.78,18.03,7.49,6.18,1.66,12.67,2.54,19.36,2.54v-30.62c-3.95,0-7.79-.52-11.43-1.5-3.77-1.01-7.34-2.51-10.65-4.43h0c-3.35-1.93-6.42-4.3-9.14-7.02-2.72-2.72-5.09-5.79-7.02-9.14h0c-1.92-3.31-3.42-6.88-4.43-10.66-.98-3.64-1.5-7.48-1.5-11.43s.52-7.79,1.5-11.44c1.01-3.77,2.51-7.33,4.43-10.64h0c1.93-3.35,4.3-6.43,7.02-9.15,2.72-2.73,5.79-5.09,9.14-7.03,3.31-1.92,6.87-3.42,10.65-4.43,3.65-.98,7.49-1.5,11.44-1.5s7.79.52,11.44,1.5c3.77,1.01,7.34,2.51,10.64,4.42,3.35,1.94,6.43,4.31,9.15,7.03,2.72,2.72,5.09,5.79,7.02,9.14,1.92,3.3,3.42,6.87,4.43,10.64l29.57-7.92c-1.71-6.38-4.25-12.44-7.49-18.03Z"/>
        <g>
          <path class="cls-2" d="M149.6,74.8c0,6.69-.88,13.18-2.54,19.36l-29.58-7.92c.98-3.65,1.5-7.49,1.5-11.44h30.62Z"/>
          <path class="cls-2" d="M139.57,112.2c-3.28,5.67-7.3,10.87-11.9,15.47l-21.64-21.64c2.72-2.72,5.09-5.79,7.02-9.14l26.52,15.31Z"/>
          <path class="cls-2" d="M112.18,139.57c-5.59,3.25-11.64,5.78-18.02,7.49l-7.93-29.58c3.77-1.01,7.35-2.51,10.65-4.42l15.3,26.51Z"/>
        </g>
      </g>
      <g id="logotype">
        <g>
          <path class="cls-1" d="M193.5,55.5c3.25-5.7,7.69-10.14,13.32-13.32,5.63-3.18,11.94-4.77,18.94-4.77,8.18,0,15.35,2.1,21.51,6.29,6.15,4.2,10.46,10,12.9,17.42h-16.89c-1.68-3.5-4.04-6.12-7.08-7.87-3.04-1.75-6.56-2.62-10.54-2.62-4.27,0-8.06,1-11.38,2.99-3.32,1.99-5.91,4.81-7.76,8.45-1.85,3.64-2.78,7.9-2.78,12.8s.93,9.07,2.78,12.75c1.85,3.67,4.44,6.5,7.76,8.5,3.32,1.99,7.12,2.99,11.38,2.99,3.99,0,7.5-.89,10.54-2.68,3.04-1.78,5.4-4.42,7.08-7.92h16.89c-2.45,7.48-6.73,13.31-12.85,17.47-6.12,4.16-13.31,6.24-21.56,6.24-6.99,0-13.31-1.59-18.94-4.77-5.63-3.18-10.07-7.61-13.32-13.27-3.25-5.67-4.88-12.1-4.88-19.3s1.63-13.65,4.88-19.36Z"/>
          <path class="cls-1" d="M285.26,37.4v74.8h-14.69V37.4h14.69Z"/>
          <path class="cls-1" d="M353.34,86.6h-42.49c.35,4.2,1.82,7.48,4.41,9.86,2.59,2.38,5.77,3.57,9.55,3.57,5.46,0,9.34-2.34,11.65-7.03h15.84c-1.68,5.6-4.9,10.19-9.65,13.8-4.76,3.6-10.6,5.4-17.52,5.4-5.6,0-10.61-1.24-15.05-3.72-4.44-2.48-7.9-6-10.39-10.54-2.48-4.55-3.72-9.79-3.72-15.74s1.22-11.29,3.67-15.84c2.45-4.55,5.88-8.04,10.28-10.49,4.41-2.45,9.48-3.67,15.21-3.67s10.47,1.19,14.84,3.57c4.37,2.38,7.76,5.75,10.18,10.12,2.41,4.37,3.62,9.39,3.62,15.05,0,2.1-.14,3.99-.42,5.67ZM338.55,76.74c-.07-3.78-1.43-6.8-4.09-9.07-2.66-2.27-5.91-3.41-9.76-3.41-3.64,0-6.7,1.1-9.18,3.3-2.48,2.2-4,5.26-4.56,9.18h27.59Z"/>
          <path class="cls-1" d="M364.2,66.36c2.34-4.55,5.52-8.04,9.54-10.49,4.02-2.45,8.51-3.67,13.48-3.67,4.34,0,8.13.88,11.38,2.62,3.25,1.75,5.86,3.95,7.82,6.61v-9.23h14.79v60.01h-14.79v-9.44c-1.89,2.73-4.5,4.98-7.82,6.77-3.32,1.78-7.15,2.68-11.49,2.68-4.9,0-9.36-1.26-13.38-3.78-4.02-2.52-7.2-6.07-9.54-10.65-2.35-4.58-3.52-9.84-3.52-15.79s1.17-11.08,3.52-15.63ZM404.33,73.02c-1.4-2.55-3.29-4.51-5.66-5.87-2.38-1.36-4.93-2.05-7.66-2.05s-5.25.67-7.55,1.99c-2.31,1.33-4.18,3.27-5.61,5.82-1.43,2.55-2.15,5.58-2.15,9.07s.72,6.56,2.15,9.18c1.43,2.62,3.32,4.63,5.67,6.03,2.34,1.4,4.84,2.1,7.5,2.1s5.28-.68,7.66-2.05c2.38-1.36,4.26-3.32,5.66-5.87,1.4-2.55,2.1-5.61,2.1-9.18s-.7-6.63-2.1-9.18Z"/>
          <path class="cls-1" d="M484.58,59.8c4.27,4.37,6.4,10.47,6.4,18.31v34.1h-14.69v-32.1c0-4.62-1.15-8.17-3.46-10.65-2.31-2.48-5.45-3.72-9.44-3.72s-7.26,1.24-9.6,3.72c-2.34,2.48-3.51,6.03-3.51,10.65v32.1h-14.69v-58.12h14.69v7.24c1.96-2.52,4.46-4.49,7.5-5.93,3.04-1.43,6.38-2.15,10.02-2.15,6.92,0,12.52,2.19,16.78,6.56Z"/>
          <path class="cls-1" d="M564.21,38.97v11.85h-19.51v61.37h-14.69v-61.37h-19.51v-11.85h53.71Z"/>
          <path class="cls-1" d="M621.6,86.6h-42.49c.35,4.2,1.82,7.48,4.41,9.86,2.59,2.38,5.77,3.57,9.55,3.57,5.46,0,9.34-2.34,11.65-7.03h15.84c-1.68,5.6-4.9,10.19-9.65,13.8-4.76,3.6-10.6,5.4-17.52,5.4-5.6,0-10.61-1.24-15.05-3.72-4.44-2.48-7.9-6-10.39-10.54-2.48-4.55-3.72-9.79-3.72-15.74s1.22-11.29,3.67-15.84c2.45-4.55,5.88-8.04,10.28-10.49,4.41-2.45,9.48-3.67,15.21-3.67s10.47,1.19,14.84,3.57c4.37,2.38,7.76,5.75,10.18,10.12,2.41,4.37,3.62,9.39,3.62,15.05,0,2.1-.14,3.99-.42,5.67ZM606.8,76.74c-.07-3.78-1.43-6.8-4.09-9.07-2.66-2.27-5.91-3.41-9.76-3.41-3.64,0-6.7,1.1-9.18,3.3-2.48,2.2-4,5.26-4.56,9.18h27.59Z"/>
          <path class="cls-1" d="M642.16,109.63c-3.78-1.71-6.77-4.04-8.97-6.98-2.2-2.94-3.41-6.19-3.62-9.76h14.79c.28,2.24,1.38,4.09,3.31,5.56,1.92,1.47,4.32,2.2,7.19,2.2s4.98-.56,6.56-1.68c1.57-1.12,2.36-2.55,2.36-4.3,0-1.89-.96-3.31-2.88-4.25-1.93-.94-4.98-1.98-9.18-3.09-4.34-1.05-7.89-2.13-10.65-3.25-2.76-1.12-5.14-2.83-7.13-5.14-1.99-2.31-2.99-5.42-2.99-9.34,0-3.22.93-6.15,2.78-8.81,1.85-2.66,4.51-4.76,7.97-6.29,3.46-1.54,7.53-2.31,12.22-2.31,6.92,0,12.45,1.73,16.58,5.19,4.13,3.46,6.4,8.13,6.82,14h-14.06c-.21-2.31-1.17-4.14-2.89-5.51-1.71-1.36-4-2.05-6.87-2.05-2.66,0-4.71.49-6.14,1.47-1.43.98-2.15,2.34-2.15,4.09,0,1.96.98,3.44,2.94,4.46,1.96,1.01,5,2.05,9.13,3.09,4.2,1.05,7.66,2.13,10.39,3.25,2.73,1.12,5.09,2.85,7.08,5.19,1.99,2.34,3.02,5.44,3.09,9.28,0,3.36-.93,6.36-2.78,9.02-1.85,2.66-4.51,4.74-7.97,6.24-3.46,1.5-7.5,2.26-12.12,2.26s-9.02-.86-12.8-2.57Z"/>
          <path class="cls-1" d="M706.99,64.26v30c0,1.96.47,3.38,1.42,4.25.94.88,2.53,1.31,4.77,1.31h6.82v12.38h-9.23c-12.38,0-18.57-6.01-18.57-18.04v-29.9h-6.92v-12.06h6.92v-12.48h14.79v12.48h13.01v12.06h-13.01Z"/>
        </g>
      </g>
    </g>
  </g>
</svg>